<svg id="Camada_1" data-name="Camada 1" xmlns="http://www.w3.org/2000/svg" viewBox="0 0 500 242.69"><defs><style>.cls-1{fill:#fff;}</style></defs><title>logo-doutor-hoje-vertival-branco</title><path class="cls-1" d="M328.42,21.72a14.18,14.18,0,0,0-3.76,27.85V90.93a42.47,42.47,0,0,1-84.46,6.41h27.72a27.22,27.22,0,0,0,27.19-27.19V44h-1.17V8.8A7.77,7.77,0,0,0,286.18,1H273.87a3.25,3.25,0,0,0-2.39-1H257.35a3.27,3.27,0,0,0-3.27,3.27v.55a3.28,3.28,0,0,0,3.27,3.28h14.13A3.26,3.26,0,0,0,274,5.87h12.14a2.93,2.93,0,0,1,2.93,2.93V44h-1.24V70.15A20,20,0,0,1,267.92,90.1H206.7a20,20,0,0,1-19.95-19.95V44h-1.17V8.8a2.94,2.94,0,0,1,2.94-2.93h12.39a3.26,3.26,0,0,0,2.56,1.23H217.6a3.26,3.26,0,0,0,2.55-1.23,3.29,3.29,0,0,0,.61-1.21,3.34,3.34,0,0,0,.11-.84V3.27a3.2,3.2,0,0,0-.11-.83A3.32,3.32,0,0,0,220,1a3.27,3.27,0,0,0-2.39-1H203.47a3.24,3.24,0,0,0-2.39,1H188.52a7.77,7.77,0,0,0-7.76,7.76V44h-1.25V70.15A27.22,27.22,0,0,0,206.7,97.34h26.19a49.71,49.71,0,0,0,99-6.41V49.65a14.18,14.18,0,0,0-3.48-27.93Zm0,23.83a9.65,9.65,0,1,1,9.65-9.65A9.65,9.65,0,0,1,328.42,45.55Z"/><path class="cls-1" d="M328.42,28.46a7.44,7.44,0,1,0,7.45,7.44A7.44,7.44,0,0,0,328.42,28.46Z"/><path class="cls-1" d="M211,43.11l22.9,22.66,35.15-34.95-9.76-9.9L233.67,46.59,220.74,33.4Z"/><path class="cls-1" d="M37.51,158.5C55,158.5,60,168.39,60,180.92c0,11.16-2.16,27.9-10.77,36.71-4.6,4.7-11.36,7.44-21.25,7.44H.89a.81.81,0,0,1-.88-1l10.28-64.61a1.07,1.07,0,0,1,1.08-1Zm1.66,22.71c0-5.58-2.74-6.26-8-6.26H28.7a.65.65,0,0,0-.69.58l-5.09,32.21c-.1.49.1.59.59.59H26c3.72,0,6.16-.39,7.93-2.74C37.61,200.7,39.17,187.58,39.17,181.21Z"/><path class="cls-1" d="M104.57,221.16c-4.7,3.72-9.89,4.89-19.28,4.89-15.67,0-20.66-5.58-20.66-20C64.63,194.92,69,182,75,177c4.5-3.82,10.28-5.28,19.18-5.28,15.47,0,21,6.07,21,19.28C115.24,199.91,112.31,215.09,104.57,221.16ZM84.8,205.59c0,4.11.49,5.29,3.32,5.29,1.77,0,2.75-.39,3.53-1.47,1.47-2.25,3.82-12.14,3.82-18,0-3.81-.3-5.18-3.33-5.18a4.36,4.36,0,0,0-3.72,1.86C86,191.88,84.8,200.4,84.8,205.59Z"/><path class="cls-1" d="M144.61,172.69a.81.81,0,0,1,.88,1l-5.09,32.12a16.5,16.5,0,0,0-.19,1.86c0,2,1.17,2.84,3.72,2.84a21.74,21.74,0,0,0,3-.2,1,1,0,0,0,1-.88l5.68-35.74a1.08,1.08,0,0,1,1.08-1H173a.82.82,0,0,1,.89,1L166.05,223a1.15,1.15,0,0,1-1.07,1,127.8,127.8,0,0,1-24.09,2.05c-14.68,0-21.34-4.4-21.34-14.49a45,45,0,0,1,.49-5.87l5.09-32a1.08,1.08,0,0,1,1.08-1Z"/><path class="cls-1" d="M190.73,226.05c-7.93,0-12.54-2.54-12.54-9.4a17.22,17.22,0,0,1,.3-3l3.82-24.38V189c0-.29-.2-.39-.49-.39h-4.31a.72.72,0,0,1-.78-.78v-.2l2.25-14a1.08,1.08,0,0,1,1.08-1h4.3c.39,0,.69-.19.69-.58l2-12.24a1.15,1.15,0,0,1,1.17-1h18.5a.72.72,0,0,1,.79.78v.2l-2,12.24c0,.39.1.58.49.58h5.68a.8.8,0,0,1,.88.79v.19l-2.25,14a1.17,1.17,0,0,1-1.18,1h-5.68c-.39,0-.58.2-.68.59l-2.55,16.64a16.64,16.64,0,0,0-.19,1.86c0,2.06,1,2.26,3.52,2.26h.39c.39,0,.79.19.79.68V211l-2.35,12.63c-.1.59-.79,1.08-1.28,1.28C198.56,225.76,194.54,226.05,190.73,226.05Z"/><path class="cls-1" d="M254.75,221.16c-4.69,3.72-9.88,4.89-19.28,4.89-15.67,0-20.66-5.58-20.66-20,0-11.16,4.41-24.08,10.38-29.08,4.5-3.82,10.28-5.28,19.19-5.28,15.47,0,21.05,6.07,21.05,19.28C265.43,199.91,262.49,215.09,254.75,221.16ZM235,205.59c0,4.11.49,5.29,3.33,5.29,1.76,0,2.74-.39,3.52-1.47,1.47-2.25,3.82-12.14,3.82-18,0-3.81-.29-5.18-3.33-5.18a4.36,4.36,0,0,0-3.72,1.86C236.15,191.88,235,200.4,235,205.59Z"/><path class="cls-1" d="M297.05,187.58a15.32,15.32,0,0,0-2.65.19c-.58.2-.58.49-.68.88l-5.58,35.44a1.07,1.07,0,0,1-1.08,1h-18.4a.81.81,0,0,1-.88-1l7.83-49.34a1.15,1.15,0,0,1,1.07-1,141.89,141.89,0,0,1,20.66-2.05,73.35,73.35,0,0,1,7.93.29.62.62,0,0,1,.49.78l-2.84,14.59a.69.69,0,0,1-.68.59A31.8,31.8,0,0,0,297.05,187.58Z"/><path class="cls-1" d="M344,159.48a1.07,1.07,0,0,1,1.08-1h18.11a.81.81,0,0,1,.88,1l-10.28,64.61a1.07,1.07,0,0,1-1.07,1H334.64a.82.82,0,0,1-.88-1l3.92-24.37c.1-.4-.1-.59-.49-.59h-9.3a.65.65,0,0,0-.69.59l-3.91,24.37a1.07,1.07,0,0,1-1.08,1h-18.5a.81.81,0,0,1-.88-1l10.28-64.61a1.05,1.05,0,0,1,1.07-1h18.51a.81.81,0,0,1,.88,1l-3.72,23.3c-.1.39.09.59.49.59h9.3c.39,0,.58-.2.68-.59Z"/><path class="cls-1" d="M406.41,221.16c-4.7,3.72-9.89,4.89-19.29,4.89-15.66,0-20.66-5.58-20.66-20,0-11.16,4.41-24.08,10.38-29.08,4.5-3.82,10.28-5.28,19.19-5.28,15.47,0,21.05,6.07,21.05,19.28C417.08,199.91,414.14,215.09,406.41,221.16Zm-19.78-15.57c0,4.11.49,5.29,3.33,5.29,1.76,0,2.74-.39,3.52-1.47,1.47-2.25,3.82-12.14,3.82-18,0-3.81-.29-5.18-3.33-5.18a4.37,4.37,0,0,0-3.72,1.86C387.81,191.88,386.63,200.4,386.63,205.59Z"/><path class="cls-1" d="M408.76,241.72c-.59-.2-.59-.59-.49-1.28l2-12.23c.29-.69.68-.69,1.27-.59a16.94,16.94,0,0,0,2.84.29c3.72,0,4.89-1.76,5.48-5.28l7.83-49a1.08,1.08,0,0,1,1.08-1h18.5a.81.81,0,0,1,.88,1l-8.61,53.75c-1.76,11.46-8.13,15.27-20.95,15.27A39,39,0,0,1,408.76,241.72Zm20.85-74a.75.75,0,0,1-.78-1l2-12.63a1.15,1.15,0,0,1,1.17-1h18.31a.75.75,0,0,1,.78,1l-2,12.63a1.16,1.16,0,0,1-1.17,1Z"/><path class="cls-1" d="M474.94,226.05c-15.57,0-24.18-5-24.18-19.28,0-9.4,2.64-24,11-30.35,4.8-3.73,11.06-4.7,18.5-4.7,13,0,19.78,5.48,19.78,16.15a36.4,36.4,0,0,1-1.57,10.28c-1.37,3.62-4.4,5-8.32,5.38l-18.7,2.06c-.49,0-.58.39-.58,1.47,0,2.94,2.44,3.91,9.49,3.91a86.85,86.85,0,0,0,13.22-1.37c.49-.09.78.1.78.4l-.59,12.72c0,.4-.19.69-.78.88C489.23,224.88,481.79,226.05,474.94,226.05Zm-2.84-32.11c0,.39.29.49.59.49h8.41c.59,0,.89-.2,1.18-1.18a17.8,17.8,0,0,0,.59-4.4c0-2-.88-4.11-4.21-4.11-2.16,0-3.53.58-4.51,1.86C472.78,188.36,472.1,191.79,472.1,193.94Z"/></svg>