<svg id="Camada_1" data-name="Camada 1" xmlns="http://www.w3.org/2000/svg" viewBox="0 0 600 128.3"><defs><style>.cls-1{fill:#fff;}</style></defs><title>logo-doutorhj-branco</title><path class="cls-1" d="M28,38.28,48.32,58.4l31.21-31-8.66-8.8L48.09,41.37,36.61,29.66Z"/><path class="cls-1" d="M132.23,19.28A12.6,12.6,0,0,0,128.89,44V80.75a37.72,37.72,0,0,1-75,5.68H78.5a24.17,24.17,0,0,0,24.15-24.14V39.06h-1V7.81A6.89,6.89,0,0,0,94.72.93H83.79A2.88,2.88,0,0,0,81.67,0H69.12A2.88,2.88,0,0,0,67,.93a2.84,2.84,0,0,0-.78,2V3.4a2.94,2.94,0,0,0,.63,1.81A2.89,2.89,0,0,0,69.12,6.3H81.67a2.86,2.86,0,0,0,2.26-1.09H94.72a2.61,2.61,0,0,1,2.6,2.6V39.06h-1.1V62.29A17.74,17.74,0,0,1,78.5,80H24.14A17.73,17.73,0,0,1,6.43,62.29V39.06h-1V7.81A2.61,2.61,0,0,1,8,5.21H19A2.89,2.89,0,0,0,21.27,6.3H33.82a2.86,2.86,0,0,0,2.26-1.09,2.78,2.78,0,0,0,.54-1.07,2.64,2.64,0,0,0,.1-.74V2.91a2.66,2.66,0,0,0-.1-.75A2.81,2.81,0,0,0,35.94.93,2.88,2.88,0,0,0,33.82,0H21.27a2.88,2.88,0,0,0-2.12.93H8A6.89,6.89,0,0,0,1.11,7.81V39.06H0V62.29A24.17,24.17,0,0,0,24.14,86.43H47.4a44.14,44.14,0,0,0,87.91-5.68V44.09a12.6,12.6,0,0,0-3.08-24.81Zm0,21.16a8.56,8.56,0,1,1,8.57-8.56A8.56,8.56,0,0,1,132.23,40.44Z"/><path class="cls-1" d="M132.23,25.27a6.61,6.61,0,1,0,6.61,6.61A6.61,6.61,0,0,0,132.23,25.27Z"/><path class="cls-1" d="M189.31,53.54c15.57,0,20,8.78,20,19.9,0,9.91-1.91,24.78-9.56,32.6-4.09,4.18-10.09,6.61-18.87,6.61H156.8a.72.72,0,0,1-.78-.87l9.13-57.38a.93.93,0,0,1,.95-.86Zm1.48,20.16c0-5-2.43-5.56-7.13-5.56h-2.17c-.35,0-.52.17-.61.52l-4.52,28.6c-.09.44.09.52.52.52h2.18c3.3,0,5.47-.34,7-2.43C189.4,91,190.79,79.35,190.79,73.7Z"/><path class="cls-1" d="M248.87,109.17c-4.18,3.31-8.78,4.35-17.13,4.35-13.91,0-18.34-5-18.34-17.74,0-9.91,3.91-21.38,9.21-25.81,4-3.39,9.13-4.7,17-4.7,13.74,0,18.69,5.39,18.69,17.13C258.34,90.31,255.73,103.78,248.87,109.17ZM231.3,95.35c0,3.65.44,4.69,3,4.69,1.57,0,2.43-.34,3.13-1.3,1.3-2,3.39-10.78,3.39-16,0-3.39-.26-4.6-2.95-4.6a3.89,3.89,0,0,0-3.31,1.65C232.35,83.18,231.3,90.74,231.3,95.35Z"/><path class="cls-1" d="M284.42,66.14a.72.72,0,0,1,.78.87l-4.52,28.51a14.82,14.82,0,0,0-.17,1.66c0,1.82,1,2.52,3.3,2.52a19.25,19.25,0,0,0,2.7-.18.92.92,0,0,0,.87-.78l5-31.73a1,1,0,0,1,1-.87h16.25a.73.73,0,0,1,.79.87l-7,43.82a1,1,0,0,1-.95.86,112.43,112.43,0,0,1-21.39,1.83c-13,0-18.95-3.91-18.95-12.87a39.48,39.48,0,0,1,.43-5.21L267.12,67a1,1,0,0,1,1-.87Z"/><path class="cls-1" d="M325.37,113.52c-7,0-11.13-2.26-11.13-8.35a16,16,0,0,1,.26-2.69l3.39-21.65v-.17c0-.26-.17-.35-.43-.35h-3.83a.64.64,0,0,1-.69-.7v-.17l2-12.43a.94.94,0,0,1,.95-.87h3.83c.35,0,.61-.17.61-.52l1.74-10.87a1,1,0,0,1,1-.87h16.43a.64.64,0,0,1,.7.7v.17L338.5,65.62c0,.35.08.52.43.52h5a.71.71,0,0,1,.79.7V67l-2,12.43a1,1,0,0,1-1.05.87h-5c-.35,0-.52.17-.61.52L333.8,95.61c-.08.7-.17,1.22-.17,1.65,0,1.83.87,2,3.13,2h.35a.62.62,0,0,1,.69.61v.26l-2.08,11.22c-.09.52-.7,1-1.14,1.13A31.7,31.7,0,0,1,325.37,113.52Z"/><path class="cls-1" d="M382.23,109.17c-4.18,3.31-8.78,4.35-17.13,4.35-13.91,0-18.34-5-18.34-17.74,0-9.91,3.91-21.38,9.21-25.81,4-3.39,9.13-4.7,17-4.7,13.74,0,18.69,5.39,18.69,17.13C391.7,90.31,389.09,103.78,382.23,109.17ZM364.66,95.35c0,3.65.44,4.69,3,4.69,1.57,0,2.44-.34,3.13-1.3,1.3-2,3.39-10.78,3.39-16,0-3.39-.26-4.6-3-4.6a3.88,3.88,0,0,0-3.3,1.65C365.71,83.18,364.66,90.74,364.66,95.35Z"/><path class="cls-1" d="M419.78,79.35a13.2,13.2,0,0,0-2.35.18c-.52.17-.52.43-.6.78l-5,31.47a1,1,0,0,1-.95.87H394.57a.72.72,0,0,1-.78-.87L400.74,68a1,1,0,0,1,1-.87A124.73,124.73,0,0,1,420,65.27a67.46,67.46,0,0,1,7,.26.55.55,0,0,1,.43.7l-2.52,13a.62.62,0,0,1-.61.52A28.94,28.94,0,0,0,419.78,79.35Z"/><path class="cls-1" d="M461.51,54.4a1,1,0,0,1,1-.86h16.08a.71.71,0,0,1,.78.86l-9.12,57.38a1,1,0,0,1-1,.87H453.17a.72.72,0,0,1-.79-.87l3.48-21.65c.09-.34-.09-.52-.43-.52h-8.26a.58.58,0,0,0-.61.52l-3.48,21.65a1,1,0,0,1-.95.87H425.69a.72.72,0,0,1-.78-.87L434,54.4a.94.94,0,0,1,1-.86h16.43a.71.71,0,0,1,.78.86l-3.3,20.69c-.09.35.08.53.43.53h8.26c.35,0,.52-.18.61-.53Z"/><path class="cls-1" d="M516.89,109.17c-4.17,3.31-8.78,4.35-17.13,4.35-13.91,0-18.34-5-18.34-17.74,0-9.91,3.91-21.38,9.22-25.81,4-3.39,9.12-4.7,17-4.7,13.73,0,18.69,5.39,18.69,17.13C526.37,90.31,523.76,103.78,516.89,109.17ZM499.33,95.35c0,3.65.43,4.69,3,4.69a3.35,3.35,0,0,0,3.13-1.3c1.3-2,3.39-10.78,3.39-16,0-3.39-.26-4.6-3-4.6a3.88,3.88,0,0,0-3.3,1.65C500.37,83.18,499.33,90.74,499.33,95.35Z"/><path class="cls-1" d="M519,127.43c-.52-.17-.52-.52-.44-1.13l1.74-10.87c.26-.61.61-.61,1.13-.52a14,14,0,0,0,2.52.26c3.31,0,4.35-1.56,4.87-4.69l7-43.47a.94.94,0,0,1,1-.87h16.43a.73.73,0,0,1,.79.87l-7.65,47.73c-1.57,10.17-7.22,13.56-18.61,13.56A34.75,34.75,0,0,1,519,127.43Zm18.51-65.72a.66.66,0,0,1-.69-.87l1.74-11.22a1,1,0,0,1,1-.87h16.26a.66.66,0,0,1,.69.87L554.8,60.84a1,1,0,0,1-1,.87Z"/><path class="cls-1" d="M577.74,113.52c-13.82,0-21.47-4.43-21.47-17.13,0-8.34,2.35-21.3,9.74-26.95,4.26-3.3,9.82-4.17,16.43-4.17C594,65.27,600,70.14,600,79.61a32.4,32.4,0,0,1-1.39,9.13c-1.22,3.22-3.91,4.44-7.39,4.78l-16.6,1.83c-.44,0-.53.35-.53,1.3,0,2.61,2.18,3.48,8.44,3.48a77.55,77.55,0,0,0,11.73-1.21c.44-.09.7.08.7.34l-.52,11.3c0,.35-.18.61-.7.79A57.57,57.57,0,0,1,577.74,113.52ZM575.22,85c0,.34.26.43.53.43h7.47c.52,0,.78-.17,1-1a15.34,15.34,0,0,0,.53-3.92c0-1.73-.79-3.65-3.74-3.65a4.55,4.55,0,0,0-4,1.66C575.83,80.05,575.22,83.09,575.22,85Z"/></svg>